<?xml version="1.0" encoding="UTF-8"?>
<svg width="16px" height="16px" viewBox="0 0 16 16" version="1.1" xmlns="http://www.w3.org/2000/svg" xmlns:xlink="http://www.w3.org/1999/xlink">
    <!-- Generator: Sketch 64 (93537) - https://sketch.com -->
    <title>形状结合</title>
    <desc>Created with Sketch.</desc>
    <g id="页面-1" stroke="none" stroke-width="1" fill="none" fill-rule="evenodd">
        <g id="历史检测" transform="translate(-666.000000, -966.000000)" fill="#3B7EFF">
            <path d="M669,966 L679,966 L679,970 L677,970 L677,968 L671,968 L671,971 L682,971 L682,982 L666,982 L666,971 L669,971 L669,966 Z M670,975 C669.447715,975 669,975.447715 669,976 C669,976.552285 669.447715,977 670,977 C670.552285,977 671,976.552285 671,976 C671,975.447715 670.552285,975 670,975 Z M674,975 C673.447715,975 673,975.447715 673,976 C673,976.552285 673.447715,977 674,977 C674.552285,977 675,976.552285 675,976 C675,975.447715 674.552285,975 674,975 Z M678,975 C677.447715,975 677,975.447715 677,976 C677,976.552285 677.447715,977 678,977 C678.552285,977 679,976.552285 679,976 C679,975.447715 678.552285,975 678,975 Z" id="形状结合"></path>
        </g>
    </g>
</svg>